<?xml version="1.0" encoding="UTF-8"?>
<svg width="120px" height="120px" viewBox="0 0 120 120" version="1.1" xmlns="http://www.w3.org/2000/svg" xmlns:xlink="http://www.w3.org/1999/xlink">
    <!-- Generator: Sketch 47.1 (45422) - http://www.bohemiancoding.com/sketch -->
    <title>pictogram/64/pictogramSuperannuation120@1x</title>
    <desc>Created with Sketch.</desc>
    <defs></defs>
    <g id="Symbols" stroke="none" stroke-width="1" fill="none" fill-rule="evenodd">
        <g id="DDL-CBA---Pictograms" transform="translate(-446.000000, -968.000000)"></g>
        <g id="pictogram/64/pictogramSuperannuation120">
            <rect id="Bounding-Box" x="0" y="0" width="120" height="120"></rect>
            <g id="pictogram" transform="translate(31.000000, 30.000000)" stroke="#4F4C4D" stroke-width="2">
                <path d="M48,29 C48,39.4938462 39.4938462,48 29,48 C18.5061538,48 10,39.4938462 10,29 C10,18.5061538 18.5061538,10 29,10 C39.4938462,10 48,18.5061538 48,29 L48,29 Z" id="Focus" fill="#FFCC00"></path>
                <path d="M29,4.4408921e-16 L29,6 M49.5060967,8.49390335 L45.263456,12.736544 M58,29 L52,29 M49.5060967,49.5060967 L45.263456,45.263456 M29,58 L29,52 M8.49390335,49.5060967 L12.736544,45.263456 M-2.40414307e-15,29 L6,29 M8.49390335,8.49390335 L12.736544,12.736544" id="Strokes" stroke-linecap="square"></path>
            </g>
        </g>
    </g>
</svg>